<?xml version="1.0" encoding="utf-8"?>
<!-- Generator: Adobe Illustrator 27.0.1, SVG Export Plug-In . SVG Version: 6.00 Build 0)  -->
<svg version="1.1" id="Layer_1" xmlns="http://www.w3.org/2000/svg" xmlns:xlink="http://www.w3.org/1999/xlink" x="0px" y="0px"
	 viewBox="0 0 71.3 71.3" style="enable-background:new 0 0 71.3 71.3;" xml:space="preserve">
<style type="text/css">
	.st0{display:none;}
	.st1{display:inline;}
	.st2{fill:none;stroke:#000000;stroke-width:6;stroke-miterlimit:10;}
	.st3{fill:none;stroke:#FFFFFF;stroke-width:0.5;stroke-miterlimit:10;}
	.st4{fill:#FBB040;stroke:#FBB040;stroke-width:3;stroke-miterlimit:10;}
	.st5{fill:#FFFFFF;}
	.st6{fill:#ED1C24;}
	.st7{fill:none;stroke:#000000;stroke-width:3;stroke-miterlimit:10;}
	.st8{display:inline;stroke:#000000;stroke-width:0.4;stroke-miterlimit:10;}
	.st9{display:inline;fill:#F9ED32;stroke:#F9ED32;stroke-width:0.4;stroke-miterlimit:10;}
	.st10{fill:#F9ED32;}
</style>
<g id="Layer_1_00000134961315504858023310000014629862119909649315_" class="st0">
	
		<image style="display:inline;overflow:visible;enable-background:new    ;" width="1306" height="1302" id="XMLID_3_" xlink:href="7EF8DAFE.jpeg"  transform="matrix(0.2514 0 0 0.2514 14.4781 97.6892)">
	</image>
	<g id="XMLID_15_" class="st1">
		<path id="XMLID_4_" class="st2" d="M-387.3,488.1l-93.9,56c-5.7,3.4-13.1,1.5-16.5-4.2l-56-93.9c-3.4-5.7-1.5-13.1,4.2-16.5
			l93.9-56c5.7-3.4,13.1-1.5,16.5,4.2l56,93.9C-379.8,477.3-381.6,484.7-387.3,488.1z"/>
		<path id="XMLID_6_" class="st2" d="M-432.5,537.6l-105.3-29.2c-6.4-1.8-10.1-8.4-8.4-14.8l29.2-105.3c1.8-6.4,8.4-10.1,14.8-8.4
			l105.3,29.2c6.4,1.8,10.1,8.4,8.4,14.8l-29.2,105.3C-419.5,535.6-426.1,539.4-432.5,537.6z"/>
	</g>
</g>
<g id="Layer_3">
	<path id="XMLID_2_" class="st3" d="M61.3,69.8H10c-4.7,0-8.5-3.8-8.5-8.5V10c0-4.7,3.8-8.5,8.5-8.5h51.4c4.7,0,8.5,3.8,8.5,8.5
		v51.4C69.8,66,66,69.8,61.3,69.8z"/>
	<g id="XMLID_9_">
		<path id="XMLID_14_" class="st4" d="M45.6,67.5l-35.7-11c-4.2-1.3-6.7-5.9-5.3-10.1l11-35.7c1.3-4.2,5.9-6.7,10.1-5.3l35.7,11
			c4.2,1.3,6.7,5.9,5.3,10.1l-11,35.7C54.4,66.5,49.8,68.9,45.6,67.5z"/>
		<path id="XMLID_31_" class="st5" d="M56.1,47.7c4.1-3.3,4.3-7.8,0.4-11c-1.1-0.9-2.3-1.7-3.6-2.3c-1.5-0.8-3.2-1.3-4.8-2
			c-3.6-1.6-6.5-3.8-5.8-8.5C38,27.7,38,32,42.4,35.2c1.7,1.3,3.7,2.1,5.6,3.1c1.4,0.7,2.9,1.1,4.3,1.8
			C55.6,41.7,56.6,43.8,56.1,47.7z"/>
		<path id="XMLID_30_" class="st5" d="M57.3,24.1c-2.7-2.4-6.1-3.4-10-2.8c-2.6,0.4-4.1,2.9-3.2,5.3c1,3,3.8,3.9,6.2,5.3
			c-0.5-0.7-1.3-1.2-1.8-1.9c-2.4-2.7-1.4-5.8,2.2-6.2C52.9,23.5,55.2,24,57.3,24.1z"/>
		<path id="XMLID_29_" class="st5" d="M41,47.4c3.3,2.6,6.7,3.7,10.5,2.7c3-0.7,4-4.2,1.9-6.6c-1.4-1.6-3.4-2.8-5.1-4.1
			c-0.1,0.1-0.2,0.3-0.3,0.4c0.4,0.3,0.8,0.6,1.1,0.9c1.4,1.3,2.6,2.7,1.9,4.8c-0.7,2-2.6,2.4-4.4,2.4C44.8,47.9,43.1,47.6,41,47.4z
			"/>
		<path id="XMLID_27_" class="st6" d="M56.1,47.7c0.6-3.9-0.5-5.9-3.8-7.7c-1.4-0.7-2.9-1.1-4.3-1.8c-1.9-0.9-3.9-1.8-5.6-3.1
			c-4.4-3.2-4.4-7.6-0.1-11.3c-0.8,4.8,2.1,6.9,5.8,8.5c1.6,0.7,3.2,1.3,4.8,2c1.3,0.6,2.5,1.4,3.6,2.3
			C60.3,39.9,60.2,44.4,56.1,47.7z"/>
		<path id="XMLID_26_" d="M57.3,24.1c-2.2-0.1-4.5-0.6-6.7-0.3c-3.6,0.4-4.5,3.5-2.2,6.2c0.6,0.6,1.3,1.2,1.8,1.9
			c-2.4-1.3-5.1-2.3-6.2-5.3c-0.8-2.4,0.7-5,3.2-5.3C51.2,20.7,54.7,21.7,57.3,24.1z"/>
		<path id="XMLID_25_" d="M41,47.4c2.1,0.2,3.8,0.5,5.6,0.5s3.7-0.3,4.4-2.4c0.7-2.1-0.5-3.5-1.9-4.8c-0.4-0.3-0.8-0.6-1.1-0.9
			c0.1-0.1,0.2-0.3,0.3-0.4c1.7,1.4,3.7,2.5,5.1,4.1c2.1,2.4,1.1,5.9-1.9,6.6C47.7,51,44.3,50,41,47.4z"/>
		<g id="XMLID_5_">
			<polyline id="XMLID_8_" points="24.2,23.5 24.2,49.4 29.6,49.4 29.6,25.9 26.4,24 			"/>
			<path id="XMLID_7_" d="M16,22.5v26.9h5.3V25.8l-6-3.9h19.9c0,0,2.3,0.2,2.3,1.7v2.1v23.5h-5.2V24.9H19.9L16,22.5L27.4,22"/>
		</g>
		<path id="XMLID_13_" class="st7" d="M62.7,53.8L28.2,67.3c-4.2,1.6-9-0.4-10.7-4.7L4,28.2c-1.6-4.2,0.4-9,4.7-10.7L43.2,4
			c4.2-1.6,9,0.4,10.7,4.7l13.5,34.5C69,47.4,66.9,52.2,62.7,53.8z"/>
	</g>
</g>
<g id="Layer_4" class="st0">
	<path id="XMLID_16_" class="st8" d="M40.2,40.1h-8.8c-4.3,0-7.8-3.5-7.8-7.8l0,0c0-4.3,3.5-7.8,7.8-7.8h8.8"/>
	<path id="XMLID_10_" class="st9" d="M40.2,24.4H49c4.3,0,7.8,3.5,7.8,7.8l0,0c0,4.3-3.5,7.8-7.8,7.8h-8.8"/>
	<g id="XMLID_17_" class="st1">
		<path id="XMLID_21_" class="st10" d="M31.2,36.2l-1.6-7.4v8c0,0.4-0.1,0.8-0.3,1c-0.2,0.2-0.4,0.3-0.7,0.3c-0.3,0-0.5-0.1-0.7-0.3
			s-0.3-0.6-0.3-1v-9.2c0-0.5,0.1-0.9,0.3-1c0.2-0.2,0.5-0.3,0.9-0.3h0.6c0.4,0,0.7,0,0.8,0.1c0.2,0.1,0.3,0.2,0.4,0.4
			c0.1,0.2,0.2,0.5,0.3,1l1.5,6.4l1.5-6.4c0.1-0.5,0.2-0.8,0.3-1s0.2-0.3,0.4-0.4s0.4-0.1,0.8-0.1H36c0.4,0,0.7,0.1,0.9,0.3
			s0.3,0.5,0.3,1v9.2c0,0.4-0.1,0.8-0.3,1s-0.4,0.3-0.7,0.3s-0.5-0.1-0.7-0.3s-0.3-0.6-0.3-1v-8l-1.6,7.4c-0.1,0.5-0.2,0.8-0.3,1.1
			s-0.2,0.4-0.4,0.6c-0.2,0.2-0.4,0.3-0.7,0.3c-0.2,0-0.4-0.1-0.6-0.2c-0.2-0.1-0.3-0.3-0.4-0.5S31,37.1,31,36.9
			C31.3,36.6,31.2,36.4,31.2,36.2z"/>
	</g>
	<g id="XMLID_18_" class="st1">
		<path id="XMLID_19_" d="M52.6,34.5c0,0.7-0.2,1.3-0.6,1.9c-0.4,0.6-1,1-1.8,1.3s-1.7,0.5-2.8,0.5c-1.3,0-2.3-0.2-3.2-0.6
			c-0.6-0.3-1.1-0.7-1.4-1.2c-0.4-0.5-0.6-1-0.6-1.5c0-0.3,0.1-0.5,0.3-0.7s0.5-0.3,0.8-0.3s0.5,0.1,0.7,0.2
			c0.2,0.2,0.4,0.4,0.5,0.7c0.2,0.4,0.3,0.7,0.5,0.9s0.5,0.4,0.8,0.6c0.3,0.2,0.8,0.2,1.4,0.2c0.8,0,1.4-0.2,1.9-0.5
			s0.7-0.7,0.7-1.2c0-0.4-0.1-0.7-0.4-0.9c-0.3-0.2-0.6-0.4-1-0.5s-1-0.3-1.7-0.4c-0.9-0.2-1.7-0.4-2.3-0.7s-1.1-0.6-1.5-1.1
			c-0.4-0.4-0.6-1-0.6-1.7c0-0.6,0.2-1.2,0.6-1.7c0.4-0.5,0.9-0.9,1.7-1.1s1.6-0.4,2.6-0.4c0.8,0,1.5,0.1,2.1,0.3s1.1,0.4,1.4,0.7
			c0.4,0.3,0.7,0.6,0.8,0.9c0.2,0.3,0.3,0.6,0.3,0.9s-0.1,0.5-0.3,0.8c-0.2,0.2-0.5,0.3-0.8,0.3S50.2,30.1,50,30s-0.3-0.4-0.5-0.7
			c-0.2-0.4-0.5-0.8-0.8-1s-0.9-0.4-1.6-0.4c-0.7,0-1.2,0.1-1.6,0.4s-0.6,0.6-0.6,1c0,0.2,0.1,0.4,0.2,0.6c0.1,0.2,0.3,0.3,0.6,0.4
			c0.2,0.1,0.5,0.2,0.7,0.3c0.3,0.1,0.7,0.2,1.3,0.3c0.7,0.2,1.4,0.3,2,0.5s1.1,0.4,1.5,0.7s0.7,0.6,1,1
			C52.5,33.5,52.6,34,52.6,34.5z"/>
	</g>
</g>
<g id="Layer_2_00000083077017865133104520000017523143711150352553_" class="st0">
	<g id="XMLID_1_" class="st1">
		<polyline id="XMLID_12_" class="st6" points="-147.5,-59.8 -147.5,5 -134.3,5 -134.3,-53.8 -142.1,-58.6 		"/>
		<path id="XMLID_11_" class="st6" d="M-168-62.3V4.8h13.3V-54l-15-9.6h49.6c0,0,5.8,0.4,5.8,4.1v5.2V4.5h-12.9v-60.8h-31.1
			L-168-62.3l28.5-1.2"/>
	</g>
</g>
</svg>
